<svg width="150" height="150" viewBox="0 0 150 150" fill="none" xmlns="http://www.w3.org/2000/svg">
<g id="Frame 5608" filter="url(#filter0_d_8758_23290)">
<rect id="Rectangle 39400" x="62" y="60" width="37" height="22" fill="#10151A"/>
<path id="Vector" d="M75 43C59.5635 43 47 55.5148 47 71C47 86.4365 59.5148 99 75 99C90.4852 99 103 86.4852 103 71C103 55.5635 90.4365 43 75 43ZM95.5009 72.5096H82.4991C81.6226 76.7948 77.4835 79.5704 73.1983 78.6939C68.913 77.8174 66.1374 73.6783 67.0139 69.393C67.8904 65.1078 72.0296 62.3322 76.3148 63.2087C79.5774 63.8417 82.0609 66.4713 82.5965 69.7826H95.5009C96.28 69.7826 96.8643 70.4156 96.8643 71.1461C96.8643 71.9252 96.2313 72.5096 95.5009 72.5096Z" fill="#008C73"/>
</g>
<defs>
<filter id="filter0_d_8758_23290" x="0" y="0" width="150" height="150" filterUnits="userSpaceOnUse" color-interpolation-filters="sRGB">
<feFlood flood-opacity="0" result="BackgroundImageFix"/>
<feColorMatrix in="SourceAlpha" type="matrix" values="0 0 0 0 0 0 0 0 0 0 0 0 0 0 0 0 0 0 127 0" result="hardAlpha"/>
<feOffset dy="4"/>
<feGaussianBlur stdDeviation="23.5"/>
<feComposite in2="hardAlpha" operator="out"/>
<feColorMatrix type="matrix" values="0 0 0 0 0 0 0 0 0 0.54902 0 0 0 0 0.45098 0 0 0 0.3 0"/>
<feBlend mode="normal" in2="BackgroundImageFix" result="effect1_dropShadow_8758_23290"/>
<feBlend mode="normal" in="SourceGraphic" in2="effect1_dropShadow_8758_23290" result="shape"/>
</filter>
</defs>
</svg>
