<svg width="150" height="150" viewBox="0 0 150 150" fill="none" xmlns="http://www.w3.org/2000/svg">
<g id="icon_opensea" filter="url(#filter0_d_8758_23283)">
<g clip-path="url(#clip0_8758_23283)">
<path id="Vector" d="M103 75C103 90.4631 90.4631 103 75 103C59.5369 103 47 90.4631 47 75C47 59.5369 59.5369 47 75 47C90.4663 47 103 59.5369 103 75Z" fill="url(#paint0_linear_8758_23283)"/>
<path id="Vector_2" d="M60.8134 75.9408L60.9343 75.751L68.2182 64.3562C68.3246 64.1893 68.5749 64.2066 68.6554 64.3878C69.8723 67.115 70.9223 70.5067 70.4304 72.6182C70.2204 73.4869 69.6451 74.6636 68.9978 75.751C68.9143 75.9092 68.8223 76.0646 68.7245 76.2141C68.6784 76.2832 68.6008 76.3235 68.5173 76.3235H61.0263C60.8249 76.3235 60.707 76.1048 60.8134 75.9408Z" fill="#10151A"/>
<path id="Vector_3" d="M93.2826 78.0582V79.8619C93.2826 79.9654 93.2193 80.0575 93.1273 80.0977C92.5634 80.3394 90.6331 81.2255 89.8305 82.3416C87.7823 85.1924 86.2173 89.2688 82.7192 89.2688H68.1255C62.9531 89.2688 58.7617 85.063 58.7617 79.8734V79.7065C58.7617 79.5684 58.8739 79.4562 59.012 79.4562H67.1474C67.3085 79.4562 67.4265 79.6058 67.4121 79.764C67.3545 80.2934 67.4524 80.8342 67.7026 81.3261C68.186 82.3071 69.1871 82.9198 70.2687 82.9198H74.2961V79.7756H70.3147C70.1105 79.7756 69.9897 79.5397 70.1076 79.3728C70.1507 79.3066 70.1997 79.2376 70.2514 79.1599C70.6283 78.6249 71.1662 77.7935 71.7013 76.847C72.0666 76.2084 72.4205 75.5266 72.7053 74.842C72.7628 74.7183 72.8089 74.5917 72.8549 74.4679C72.9326 74.2493 73.0131 74.0451 73.0707 73.8409C73.1281 73.6683 73.1742 73.487 73.2202 73.3173C73.3554 72.7362 73.413 72.1205 73.413 71.4819C73.413 71.2316 73.4015 70.9699 73.3785 70.7195C73.367 70.4463 73.3324 70.173 73.2979 69.8997C73.2749 69.658 73.2317 69.4193 73.1857 69.169C73.1281 68.8037 73.0476 68.4412 72.9555 68.0758L72.9239 67.9378C72.8549 67.6875 72.7974 67.4487 72.7168 67.1984C72.4896 66.4131 72.2277 65.6479 71.9516 64.9316C71.8509 64.6468 71.7358 64.3735 71.6207 64.1002C71.451 63.6888 71.2784 63.3148 71.1202 62.961C71.0397 62.7999 70.9706 62.6532 70.9016 62.5036C70.8239 62.3339 70.7434 62.1642 70.6628 62.003C70.6053 61.8793 70.5391 61.7643 70.4931 61.6492L70.0012 60.7402C69.9321 60.6165 70.0472 60.4697 70.1824 60.5071L73.2605 61.3414H73.2691C73.2749 61.3414 73.2778 61.3443 73.2807 61.3443L73.6863 61.4565L74.1322 61.583L74.2961 61.6291V59.7995C74.2961 58.9163 75.0038 58.2 75.8784 58.2C76.3156 58.2 76.7126 58.3783 76.9974 58.6689C77.2822 58.9595 77.4606 59.3565 77.4606 59.7995V62.5151L77.7885 62.6071C77.8144 62.6158 77.8403 62.6273 77.8633 62.6445C77.9438 62.7049 78.0589 62.7942 78.2056 62.9034C78.3207 62.9955 78.4444 63.1077 78.594 63.2228C78.8903 63.4616 79.2441 63.7694 79.6325 64.1232C79.736 64.2124 79.8368 64.3044 79.9288 64.3965C80.4294 64.8625 80.9903 65.4091 81.5254 66.0132C81.675 66.1829 81.8217 66.3555 81.9713 66.5368C82.1209 66.7209 82.2791 66.9021 82.4172 67.0834C82.5984 67.325 82.794 67.5753 82.9637 67.8371C83.0443 67.9608 83.1363 68.0874 83.2141 68.2111C83.4326 68.5419 83.6254 68.8842 83.8095 69.2265C83.8872 69.3848 83.9678 69.5574 84.0368 69.7271C84.241 70.1845 84.4021 70.6505 84.5057 71.1166C84.5373 71.2173 84.5604 71.3266 84.5719 71.4244V71.4474C84.6063 71.5855 84.6178 71.7322 84.6294 71.8818C84.6754 72.3593 84.6524 72.8368 84.5488 73.3173C84.5057 73.5215 84.4482 73.7142 84.3791 73.9185C84.31 74.1141 84.241 74.3183 84.1519 74.5111C83.9793 74.911 83.775 75.3109 83.5333 75.6848C83.4557 75.8229 83.3636 75.9696 83.2715 76.1077C83.1709 76.2544 83.0673 76.3925 82.9752 76.5277C82.8487 76.7003 82.7135 76.8815 82.5754 77.0426C82.4517 77.2124 82.3251 77.3821 82.187 77.5317C81.9943 77.7589 81.8102 77.9747 81.6174 78.1819C81.5024 78.3171 81.3787 78.4551 81.2521 78.5788C81.1284 78.7169 81.0018 78.8406 80.8868 78.9556C80.694 79.1484 80.5329 79.298 80.3977 79.4217L80.0812 79.7123C80.0352 79.7525 79.9748 79.7756 79.9115 79.7756H77.4606V82.9198H80.5444C81.2348 82.9198 81.8907 82.6753 82.42 82.2265C82.6013 82.0683 83.3924 81.3836 84.3273 80.3509C84.3589 80.3164 84.3993 80.2905 84.4452 80.279L92.9633 77.8165C93.1215 77.7704 93.2826 77.8913 93.2826 78.0582Z" fill="#10151A"/>
</g>
</g>
<defs>
<filter id="filter0_d_8758_23283" x="0" y="0" width="150" height="150" filterUnits="userSpaceOnUse" color-interpolation-filters="sRGB">
<feFlood flood-opacity="0" result="BackgroundImageFix"/>
<feColorMatrix in="SourceAlpha" type="matrix" values="0 0 0 0 0 0 0 0 0 0 0 0 0 0 0 0 0 0 127 0" result="hardAlpha"/>
<feOffset/>
<feGaussianBlur stdDeviation="23.5"/>
<feComposite in2="hardAlpha" operator="out"/>
<feColorMatrix type="matrix" values="0 0 0 0 0.12549 0 0 0 0 0.505882 0 0 0 0 0.886275 0 0 0 0.3 0"/>
<feBlend mode="normal" in2="BackgroundImageFix" result="effect1_dropShadow_8758_23283"/>
<feBlend mode="normal" in="SourceGraphic" in2="effect1_dropShadow_8758_23283" result="shape"/>
</filter>
<linearGradient id="paint0_linear_8758_23283" x1="75" y1="47" x2="75" y2="103" gradientUnits="userSpaceOnUse">
<stop stop-color="#3E99F3"/>
<stop offset="1" stop-color="#2081E2"/>
</linearGradient>
<clipPath id="clip0_8758_23283">
<rect x="47" y="47" width="56" height="56" rx="28" fill="white"/>
</clipPath>
</defs>
</svg>
